<svg width="32" height="32" viewBox="0 0 32 32" fill="none" xmlns="http://www.w3.org/2000/svg">
<circle cx="16" cy="16" r="16" fill="#03054A"/>
<path d="M13.0283 23L10.5983 19.49H10.4543H7.91625V23H5.00025V10.4H10.4543C11.5703 10.4 12.5363 10.586 13.3523 10.958C14.1803 11.33 14.8163 11.858 15.2603 12.542C15.7043 13.226 15.9263 14.036 15.9263 14.972C15.9263 15.908 15.6983 16.718 15.2423 17.402C14.7983 18.074 14.1623 18.59 13.3343 18.95L16.1603 23H13.0283ZM12.9743 14.972C12.9743 14.264 12.7463 13.724 12.2903 13.352C11.8343 12.968 11.1683 12.776 10.2923 12.776H7.91625V17.168H10.2923C11.1683 17.168 11.8343 16.976 12.2903 16.592C12.7463 16.208 12.9743 15.668 12.9743 14.972ZM21.5708 12.776H17.5388V10.4H28.5188V12.776H24.4868V23H21.5708V12.776Z" fill="white"/>
</svg>
